<svg height="137" viewBox="0 0 100 137" width="100" xmlns="http://www.w3.org/2000/svg"><path d="m99.5594126 40.4138852s-3.858478-7.5967957-4.5794393-11.1214953l-.7209613-.6141522-6.8891856-13.2443258s-2.0427236-3.9652871-2.4432576-4.4192257c0 0-2.6835781-4.52603466-3.1241656-4.97997325 0 0 .2803738-1.68224299-.6141522-2.01602136 0 0-.3337784-.94793058-.9479306-1.00133511 0 0-.0534045-.94793058-1.0013351-1.25500668 0 0 .2269693-1.02803738-1.5086782-1.17489987h-.493992s-1.2950601-1.02803738-2.3497997-.0400534c0 0-1.8424567 1.13484646-1.7356476 3.99198932l-.2269693 2.38985314s-.7209613 1.00133511-3.6315086 3.12416551c0 0-9.9465955 7.0360481-11.5620828 8.9452604 0 0-7.3297731 1.8958611-10.987984 3.1241655 0 0-2.3230975.6141522-3.1508678.6141522 0 0-3.2443258 0-4.0854473.1068091 0 0-.3871829-3.070761-1.0680908-4.0186916 0 0 .3337784-3.6315086-2.7369826-5.5941255 0 0-3.2443258-3.070761-5.7543391-2.5100133 0 0-3.2443258-1.6021362-5.4205608-.78771697 0 0-2.9105474.50734307-1.6154873 1.62883847 0 0-2.0160214.9212283-3.5246996 3.4846462 0 0-.2269693.5473965 0 1.1081442 0 0 .2269693 1.0280373-.3871829 1.4152203l-2.176235 1.188251s-1.8424566.2269693-.5073431 1.8424566c0 0 .2403204.6675567-.293725 1.1214953 0 0-.200267.7209613.3604807.894526 0 0-.6141522.6141522-.387183 1.1214954 0 0 .7209613.5073431.387183 1.2817089 0 0-.6675568 2.1361816 2.1228304 2.0160214 0 0 2.9639519-.3471295 3.8050734 2.3898531l1.4018692 4.5260347s-4.4192256-1.1748999-6.7556742-.9479306c0 0-4.9132177-2.9639519-7.31642194-3.2443257 0 0-.6141522-.3871829-.89452604-1.0013351 0 0-3.47129506-10.8411215-4.69959946-13.4178906 0 0-.74766355-2.6568758-.36048064-3.2042723 0 0 1.81575434-1.5353805 2.81708945-3.49799735 0 0 .8411215-2.57676903.6141522-4.01869159 0 0-.84112149-1.4552737-1.78905207-1.56208278 0 0 2.01602137-.50734312 2.17623498-1.22830441 0 0-.05340454-.33377837-2.17623498 0l-1.17489986.10680908s-1.56208278.89452604-1.94926569 1.4552737c0 0-.94793057.33377837-1.50867824 2.17623498 0 0-.78771695 4.52603467-.50734312 5.98130837 0 0-.29372497 1.7890521-.06675568 2.4566089 0 0 .28037384 13.3511348 1.78905207 15.9279038 0 0-.22696929 2.176235 1.84245661 3.0173565 0 0 5.246996 6.8224299 12.79038721 8.9452603 0 0 4.5260347 1.3351135 5.246996 2.9105474 0 0-.6675568 11.1214954 6.141522 10.2803739 0 0 7.4365821 6.4218958 10.6141522 6.5954606 0 0 3.4312417.7476635 6.8758344 2.576769 0 0 5.9279039 2.6568759 6.82243 2.7369827 0 0 .9479305 16.3684913 2.8437917 20.1735647 0 0 1.2283044 4.0186916 1.2283044 6.141522 0 0-.2803738 4.4726302.2803738 5.2069426 0 0-.6675567 10.013351-.2269693 11.29506h.3738318s.6809079 14.659546-2.9506008 17.957276c0 0-5.8611482 3.497998-6.5420561 4.285715 0 0-1.682243 1.054739-1.8424566 1.615487 0 0-2.5100133.947931-2.576769 1.388518 0 0 .0534045 2.22964 4.4192256.333778 0 0 3.1241656.053405 3.9118825-1.281708 0 0 2.6835781-2.069426 5.6341789-.947931 0 0 4.7663552 1.735647 6.1682243-.507343 0 0 .5073432-.333779-.5607476-2.790387 0 0-1.3351135-4.085448 1.0013351-8.437918 0 0 4.4726302-9.77303 3.965287-12.176235 0 0 1.7356476-.387182 1.8958612-.94793 0 0-2.6301736-10.6675569-2.7903872-13.8050736l.2803738-2.8437917s2.4566088-10.9479306 2.8437918-15.0333778c0 0 1.4552737-12.7903872 1.0680907-14.1922564 0 0 17.716956-7.1562082 24.6995995-12.4566088 0 0 6.3150868-4.6995994 4.1922564-9.5594125zm-94.65954611-36.15487318c.17356475.17356475.84112149.44058745.84112149.44058745-.22696929.78771695-.06675567 1.72229639-.06675567 1.72229639 0 .8411215-.94793057 1.17489987-.94793057 1.17489987l-1.00133512-1.00133512c0-1.66889185 1.17489987-2.33644859 1.17489987-2.33644859zm69.37249671 39.57276368c-3.3778372.6542056-6.2483312.5740988-6.2483312.5740988-10.694259-2.8838451-14.5660881 1.1481976-14.5660881 1.1481976-1.7222964 1.8958611-2.3097463 1.481976-2.3097463 1.481976-1.3217624-.4138852-5.3538051-5.8477971-5.3538051-5.8477971-1.7222964-1.8157543-1.6421896-8.6515354-1.6421896-8.6515354.2002671-1.1348464.9212283-1.1214953.9212283-1.1214953 8.3845127-1.0814419 14.6194927-7.0761015 14.6194927-7.0761015.5607477.1468625 1.8291055-.9078771 1.8291055-.9078771 5.1134846-2.2963952 14.5393858-13.65821099 14.5393858-13.65821099h.6675568c.2403204.85447259-.2403205 3.28437919-.2403205 3.28437919-1.188251 4.8064085 1.5620828 4.459279 1.5620828 4.459279.9078772-.0801068 2.6301736-.0133511 2.6301736-.0133511.987984 1.7222964 2.5500667 15.6341789 2.5500667 15.6341789-.3337783 1.6421896 4.1121496 7.6502003 4.1121496 7.6502003-1.4686249-.493992-13.070761 3.0440587-13.070761 3.0440587z" fill="#001527"/></svg>